<svg xmlns="http://www.w3.org/2000/svg" width="28.272" height="20.866" viewBox="0 0 28.272 20.866"><defs><style>.a{fill:#3e363f;}</style></defs><g transform="translate(-939.213 -693.779)"><path class="a" d="M955.749,693.988a1.761,1.761,0,0,0-1.809.088l-7.576,5.05h-2.872a1.41,1.41,0,0,0-1.4,1.29h-.406a2.474,2.474,0,0,0-2.471,2.472v2.649a2.473,2.473,0,0,0,2.471,2.471h.406a1.409,1.409,0,0,0,1.4,1.29h2.872l7.576,5.051a1.763,1.763,0,0,0,2.74-1.467V695.543A1.76,1.76,0,0,0,955.749,693.988Zm-15.138,11.549v-2.649a1.074,1.074,0,0,1,1.073-1.073h.4v4.795h-.4A1.075,1.075,0,0,1,940.611,705.537Zm2.871,2.353v-7.355a.01.01,0,0,1,.01-.01h2.384V707.9h-2.384A.01.01,0,0,1,943.482,707.89Zm11.8,4.992a.364.364,0,0,1-.566.3l-7.441-4.961V700.2l7.441-4.96a.364.364,0,0,1,.566.3Z"/><path class="a" d="M963.818,695.348a.629.629,0,0,0-.89.89,11.289,11.289,0,0,1,0,15.948.63.63,0,0,0,.89.891,12.548,12.548,0,0,0,0-17.729Z"/><path class="a" d="M959.472,698.8a.63.63,0,0,0,0,.891,6.4,6.4,0,0,1,0,9.035.629.629,0,1,0,.89.89,7.654,7.654,0,0,0,0-10.815A.63.63,0,0,0,959.472,698.8Z"/></g></svg>