<svg xmlns="http://www.w3.org/2000/svg" width="26.739" height="20.95" viewBox="0 0 26.739 20.95"><defs><style>.a{fill:#bc96e6;}</style></defs><g transform="translate(-938.909 -693.737)"><path class="a" d="M955.512,693.947a1.768,1.768,0,0,0-1.817.088l-7.606,5.071h-2.884A1.416,1.416,0,0,0,941.8,700.4h-.407a2.484,2.484,0,0,0-2.481,2.481v2.66a2.485,2.485,0,0,0,2.481,2.482h.407a1.416,1.416,0,0,0,1.408,1.295h2.884l7.606,5.07a1.77,1.77,0,0,0,2.752-1.472V695.508A1.77,1.77,0,0,0,955.512,693.947Zm-13.721,12.672h-.4a1.078,1.078,0,0,1-1.077-1.077v-2.66a1.078,1.078,0,0,1,1.077-1.077h.4Zm3.808,1.295h-2.394a.009.009,0,0,1-.009-.009V700.52a.01.01,0,0,1,.009-.01H945.6v7.4Zm9.443,5a.365.365,0,0,1-.568.3l-7.47-4.98v-8.057l7.47-4.981a.365.365,0,0,1,.568.3Z"/><path class="a" d="M963.536,704.212l1.927-1.927a.632.632,0,0,0-.894-.894l-1.927,1.927-1.927-1.927a.632.632,0,0,0-.894.894l1.927,1.927-1.927,1.927a.632.632,0,0,0,.894.894l1.927-1.927,1.927,1.927a.632.632,0,0,0,.894-.894Z"/></g></svg>